<mxfile host="app.diagrams.net" modified="2025-10-09T19:14:56Z" agent="mxGraph" version="22.1.4" type="device">
  <diagram name="Authorization Boundary" id="BB89162034934699BA95977D0143AC1F">
    <mxGraphModel dx="1024" dy="768" grid="1" gridSize="10" guides="1" tooltips="1" connect="1" arrows="1" fold="1" page="1" pageScale="1" pageWidth="850" pageHeight="1100" math="0" shadow="0">
      <root>
        <mxCell id="0"/>
        <mxCell id="1" parent="0"/>
        <mxCell id="2" value="%%{init: {&#x27;theme&#x27;:&#x27;base&#x27;, &#x27;themeVariables&#x27;: { &#x27;primaryColor&#x27;:&#x27;#e8f5e9&#x27;,&#x27;secondaryColor&#x27;:&#x27;#fff3e0&#x27;,&#x27;tertiaryColor&#x27;:&#x27;#fce4ec&#x27;,&#x27;primaryBorderColor&#x27;:&#x27;#4caf50&#x27;,&#x27;secondaryBorderColor&#x27;:&#x27;#ff9800&#x27;,&#x27;tertiaryBorderColor&#x27;:&#x27;#e91e63&#x27;}}}%%&#xa;&#xa;graph TB&#xa;    subgraph Z1[&quot;Z-1: INTERNET ZONE (Untrusted)&quot;]&#xa;        style Z1 fill:#ffebee,stroke:#d32f2f,stroke-width:3px,stroke-dasharray: 5 5&#xa;        A1[&quot;A-1: End Users&lt;br/&gt;[OOS]&lt;br/&gt;Browsers/Git Clients&quot;]&#xa;        A2[&quot;A-2: GCP Public APIs&lt;br/&gt;[External]&lt;br/&gt;Security Command Center&lt;br/&gt;Cloud Asset Inventory&lt;br/&gt;Cloud Logging&quot;]&#xa;        A3[&quot;A-3: External Registries&lt;br/&gt;[External]&lt;br/&gt;Docker Hub&lt;br/&gt;GitHub Packages&quot;]&#xa;    end&#xa;&#xa;    subgraph Z2[&quot;Z-2: DMZ / EDGE ZONE (Controlled)&quot;]&#xa;        style Z2 fill:#fff3e0,stroke:#f57c00,stroke-width:3px&#xa;        A4[&quot;A-4: Reverse Proxy&lt;br/&gt;[SPA]&lt;br/&gt;Caddy/Traefik&lt;br/&gt;TLS 1.3 Termination&lt;br/&gt;WAF Capability&lt;br/&gt;IP: 10.10.1.10&quot;]&#xa;        A5[&quot;A-5: VPN Gateway&lt;br/&gt;[SPA]&lt;br/&gt;WireGuard/Tailscale&lt;br/&gt;Admin Access Only&lt;br/&gt;IP: 10.10.1.5&quot;]&#xa;    end&#xa;&#xa;    subgraph Z3[&quot;Z-3: APPLICATION TIER (CUI Processing)&quot;]&#xa;        style Z3 fill:#e3f2fd,stroke:#1976d2,stroke-width:4px&#xa;        A6[&quot;A-6: Gitea&lt;br/&gt;[CUI]&lt;br/&gt;Source Code Repository&lt;br/&gt;Secrets Management&lt;br/&gt;Network: app-tier&lt;br/&gt;IP: 10.10.2.10&quot;]&#xa;        A7[&quot;A-7: n8n Workflow Engine&lt;br/&gt;[SPA]&lt;br/&gt;Automation Orchestration&lt;br/&gt;Evidence Collection&lt;br/&gt;Network: app-tier&lt;br/&gt;IP: 10.10.2.20&quot;]&#xa;        A8[&quot;A-8: SonarQube&lt;br/&gt;[SPA]&lt;br/&gt;SAST Analysis&lt;br/&gt;Code Quality Metrics&lt;br/&gt;Network: app-tier&lt;br/&gt;IP: 10.10.2.30&quot;]&#xa;        A9[&quot;A-9: Prometheus&lt;br/&gt;[SPA]&lt;br/&gt;Metrics Collection&lt;br/&gt;Security Monitoring&lt;br/&gt;Network: monitoring&lt;br/&gt;IP: 10.10.2.40&quot;]&#xa;        A10[&quot;A-10: Grafana&lt;br/&gt;[SPA]&lt;br/&gt;Visualization Dashboard&lt;br/&gt;Alerting&lt;br/&gt;Network: monitoring&lt;br/&gt;IP: 10.10.2.50&quot;]&#xa;    end&#xa;&#xa;    subgraph Z4[&quot;Z-4: DATA TIER (CUI Storage)&quot;]&#xa;        style Z4 fill:#e8f5e9,stroke:#388e3c,stroke-width:4px&#xa;        S1[&quot;S-1: Gitea PostgreSQL&lt;br/&gt;[CUI]&lt;br/&gt;Encrypted at Rest&lt;br/&gt;AES-256-GCM&lt;br/&gt;Network: data-tier&lt;br/&gt;IP: 10.10.3.10&quot;]&#xa;        S2[&quot;S-2: SonarQube PostgreSQL&lt;br/&gt;[SPA]&lt;br/&gt;Encrypted at Rest&lt;br/&gt;AES-256-GCM&lt;br/&gt;Network: data-tier&lt;br/&gt;IP: 10.10.3.20&quot;]&#xa;        S3[&quot;S-3: n8n PostgreSQL&lt;br/&gt;[SPA]&lt;br/&gt;Workflow State Store&lt;br/&gt;AES-256-GCM&lt;br/&gt;Network: data-tier&lt;br/&gt;IP: 10.10.3.30&quot;]&#xa;        S4[&quot;S-4: Prometheus TSDB&lt;br/&gt;[SPA]&lt;br/&gt;Time Series Data&lt;br/&gt;Local Volume&lt;br/&gt;Network: data-tier&lt;br/&gt;IP: 10.10.3.40&quot;]&#xa;    end&#xa;&#xa;    subgraph Z5[&quot;Z-5: SECURITY SCANNING ZONE (Isolated)&quot;]&#xa;        style Z5 fill:#f3e5f5,stroke:#7b1fa2,stroke-width:3px&#xa;        A11[&quot;A-11: Trivy Scanner&lt;br/&gt;[SPC]&lt;br/&gt;Container Image CVE&lt;br/&gt;Ephemeral Pods&lt;br/&gt;Network: scan-tier&quot;]&#xa;        A12[&quot;A-12: Grype Scanner&lt;br/&gt;[SPC]&lt;br/&gt;SBOM Analysis&lt;br/&gt;Ephemeral Pods&lt;br/&gt;Network: scan-tier&quot;]&#xa;        A13[&quot;A-13: Semgrep&lt;br/&gt;[SPC]&lt;br/&gt;SAST Rules Engine&lt;br/&gt;Ephemeral Pods&lt;br/&gt;Network: scan-tier&quot;]&#xa;        A14[&quot;A-14: Checkov&lt;br/&gt;[SPC]&lt;br/&gt;IaC Security Scan&lt;br/&gt;Ephemeral Pods&lt;br/&gt;Network: scan-tier&quot;]&#xa;        A15[&quot;A-15: tfsec&lt;br/&gt;[SPC]&lt;br/&gt;Terraform Security&lt;br/&gt;Ephemeral Pods&lt;br/&gt;Network: scan-tier&quot;]&#xa;        A16[&quot;A-16: Terrascan&lt;br/&gt;[SPC]&lt;br/&gt;IaC Compliance&lt;br/&gt;Ephemeral Pods&lt;br/&gt;Network: scan-tier&quot;]&#xa;        A17[&quot;A-17: Infracost&lt;br/&gt;[SPC]&lt;br/&gt;Cost Analysis&lt;br/&gt;Ephemeral Pods&lt;br/&gt;Network: scan-tier&quot;]&#xa;    end&#xa;&#xa;    subgraph Z6[&quot;Z-6: GCP CLOUD ZONE (External Trust Boundary)&quot;]&#xa;        style Z6 fill:#fff9c4,stroke:#f9a825,stroke-width:3px,stroke-dasharray: 5 5&#xa;        S5[&quot;S-5: GCS Evidence Bucket&lt;br/&gt;[CRMA]&lt;br/&gt;Immutable Storage&lt;br/&gt;7-Year Retention&lt;br/&gt;CMEK Encryption&lt;br/&gt;AES-256-GCM&quot;]&#xa;        A18[&quot;A-18: Security Command Center&lt;br/&gt;[External]&lt;br/&gt;Vulnerability Aggregation&lt;br/&gt;Compliance Monitoring&quot;]&#xa;        A19[&quot;A-19: Cloud Asset Inventory&lt;br/&gt;[External]&lt;br/&gt;Infrastructure Discovery&quot;]&#xa;        A20[&quot;A-20: Cloud Logging&lt;br/&gt;[External]&lt;br/&gt;Centralized Audit Logs&quot;]&#xa;        A21[&quot;A-21: Google Chat API&lt;br/&gt;[External]&lt;br/&gt;Notification Webhooks&quot;]&#xa;    end&#xa;&#xa;    %% Trust Boundary Crossings - Internet to DMZ&#xa;    A1 --&gt;|F-1: HTTPS/443&lt;br/&gt;TLS 1.3&lt;br/&gt;OAuth2| A4&#xa;    A1 --&gt;|F-2: SSH/22&lt;br/&gt;Git over SSH&lt;br/&gt;Public Key Auth| A4&#xa;    A3 --&gt;|F-3: HTTPS/443&lt;br/&gt;TLS 1.3&lt;br/&gt;Registry Pull| A4&#xa;&#xa;    %% Admin Access&#xa;    A1 --&gt;|F-4: WireGuard/51820&lt;br/&gt;Encrypted Tunnel&lt;br/&gt;MFA Required| A5&#xa;&#xa;    %% DMZ to Application Tier&#xa;    A4 --&gt;|F-5: HTTP/3000&lt;br/&gt;Internal Network&lt;br/&gt;Session Auth| A6&#xa;    A4 --&gt;|F-6: HTTP/5678&lt;br/&gt;Internal Network&lt;br/&gt;API Key Auth| A7&#xa;    A4 --&gt;|F-7: HTTP/9000&lt;br/&gt;Internal Network&lt;br/&gt;Token Auth| A8&#xa;    A4 --&gt;|F-8: HTTP/3001&lt;br/&gt;Internal Network&lt;br/&gt;Basic Auth| A10&#xa;    A5 --&gt;|F-9: SSH/Admin&lt;br/&gt;Encrypted&lt;br/&gt;Certificate Auth| A6&#xa;    A5 --&gt;|F-10: SSH/Admin&lt;br/&gt;Encrypted&lt;br/&gt;Certificate Auth| A7&#xa;&#xa;    %% Application to Data Tier&#xa;    A6 --&gt;|F-11: PostgreSQL/5432&lt;br/&gt;TLS Required&lt;br/&gt;Password + Cert| S1&#xa;    A8 --&gt;|F-12: PostgreSQL/5432&lt;br/&gt;TLS Required&lt;br/&gt;Password + Cert| S2&#xa;    A7 --&gt;|F-13: PostgreSQL/5432&lt;br/&gt;TLS Required&lt;br/&gt;Password + Cert| S3&#xa;    A9 --&gt;|F-14: Write TSDB&lt;br/&gt;Local Socket&lt;br/&gt;Process Isolation| S4&#xa;&#xa;    %% Application Tier Interactions&#xa;    A6 --&gt;|F-15: Webhook/HTTP&lt;br/&gt;HMAC Signature&lt;br/&gt;Event Triggers| A7&#xa;    A7 --&gt;|F-16: HTTP/9000&lt;br/&gt;API Token&lt;br/&gt;Scan Triggers| A8&#xa;    A9 --&gt;|F-17: HTTP/Scrape&lt;br/&gt;Metrics Pull&lt;br/&gt;Service Discovery| A6&#xa;    A9 --&gt;|F-18: HTTP/Scrape&lt;br/&gt;Metrics Pull&lt;br/&gt;Service Discovery| A7&#xa;    A9 --&gt;|F-19: HTTP/Scrape&lt;br/&gt;Metrics Pull&lt;br/&gt;Service Discovery| A8&#xa;    A10 --&gt;|F-20: HTTP/9090&lt;br/&gt;PromQL Query&lt;br/&gt;Token Auth| A9&#xa;&#xa;    %% Application to Security Scanning&#xa;    A6 --&gt;|F-21: Docker Socket&lt;br/&gt;Unix Domain&lt;br/&gt;Container Spawn| A11&#xa;    A6 --&gt;|F-22: Docker Socket&lt;br/&gt;Unix Domain&lt;br/&gt;Container Spawn| A12&#xa;    A6 --&gt;|F-23: Docker Socket&lt;br/&gt;Unix Domain&lt;br/&gt;Container Spawn| A13&#xa;    A7 --&gt;|F-24: Docker Exec&lt;br/&gt;Volume Mount&lt;br/&gt;IaC File Access| A14&#xa;    A7 --&gt;|F-25: Docker Exec&lt;br/&gt;Volume Mount&lt;br/&gt;IaC File Access| A15&#xa;    A7 --&gt;|F-26: Docker Exec&lt;br/&gt;Volume Mount&lt;br/&gt;IaC File Access| A16&#xa;    A7 --&gt;|F-27: Docker Exec&lt;br/&gt;Volume Mount&lt;br/&gt;Cost Analysis| A17&#xa;&#xa;    %% Security Scanning to Internet (CVE DB Updates)&#xa;    A11 --&gt;|F-28: HTTPS/443&lt;br/&gt;TLS 1.3&lt;br/&gt;Trivy DB Pull| A2&#xa;    A12 --&gt;|F-29: HTTPS/443&lt;br/&gt;TLS 1.3&lt;br/&gt;Grype DB Pull| A2&#xa;&#xa;    %% Application to GCP Cloud&#xa;    A7 --&gt;|F-30: HTTPS/443&lt;br/&gt;TLS 1.3&lt;br/&gt;Service Account OAuth2| S5&#xa;    A7 --&gt;|F-31: HTTPS/443&lt;br/&gt;TLS 1.3&lt;br/&gt;Service Account OAuth2| A18&#xa;    A7 --&gt;|F-32: HTTPS/443&lt;br/&gt;TLS 1.3&lt;br/&gt;Service Account OAuth2| A19&#xa;    A7 --&gt;|F-33: HTTPS/443&lt;br/&gt;TLS 1.3&lt;br/&gt;Service Account OAuth2| A20&#xa;    A7 --&gt;|F-34: HTTPS/443&lt;br/&gt;TLS 1.3&lt;br/&gt;Webhook Secret| A21&#xa;&#xa;    %% GCP to Application (Finding Ingestion)&#xa;    A18 --&gt;|F-35: Pub/Sub Push&lt;br/&gt;HTTPS/443&lt;br/&gt;TLS 1.3&lt;br/&gt;JWT Auth| A7&#xa;&#xa;    %% Legend Annotations&#xa;    classDef cui fill:#e3f2fd,stroke:#1976d2,stroke-width:3px&#xa;    classDef spa fill:#fff3e0,stroke:#f57c00,stroke-width:2px&#xa;    classDef crma fill:#e8f5e9,stroke:#388e3c,stroke-width:3px&#xa;    classDef spc fill:#f3e5f5,stroke:#7b1fa2,stroke-width:2px&#xa;    classDef oos fill:#fafafa,stroke:#757575,stroke-width:1px&#xa;    classDef ext fill:#fff9c4,stroke:#f9a825,stroke-width:2px,stroke-dasharray: 5 5&#xa;&#xa;    class A6,S1 cui&#xa;    class A4,A5,A7,A8,A9,A10,S2,S3,S4 spa&#xa;    class S5 crma&#xa;    class A11,A12,A13,A14,A15,A16,A17 spc&#xa;    class A1 oos&#xa;    class A2,A3,A18,A19,A20,A21 ext" style="shape=mxgraph.mermaid;html=1;verticalAlign=top;align=left;whiteSpace=wrap;labelBackgroundColor=none;" vertex="1" parent="1">
          <mxGeometry x="20" y="20" width="800" height="600" as="geometry"/>
        </mxCell>
      </root>
    </mxGraphModel>
  </diagram>
</mxfile>
